<svg width="119" height="27" viewBox="0 0 119 27" fill="none" xmlns="http://www.w3.org/2000/svg">
<path d="M0.0910645 0.636475H5.40072L11.0087 14.3183H11.2473L16.8553 0.636475H22.1649V21.0001H17.9888V7.74585H17.8198L12.5499 20.9007H9.70612L4.43623 7.69613H4.2672V21.0001H0.0910645V0.636475Z" fill="#E60012"/>
<path d="M29.9877 21.2885C29.0133 21.2885 28.1449 21.1194 27.3826 20.7814C26.6203 20.4367 26.0171 19.9296 25.573 19.2601C25.1355 18.5839 24.9167 17.7421 24.9167 16.7345C24.9167 15.886 25.0725 15.1734 25.384 14.5967C25.6956 14.02 26.1198 13.556 26.6568 13.2047C27.1937 12.8533 27.8035 12.5882 28.4863 12.4092C29.1757 12.2302 29.8982 12.1043 30.6539 12.0314C31.5422 11.9386 32.2581 11.8524 32.8016 11.7728C33.3452 11.6867 33.7396 11.5607 33.9849 11.395C34.2302 11.2293 34.3528 10.984 34.3528 10.6592V10.5995C34.3528 9.96981 34.1539 9.48259 33.7562 9.13789C33.3651 8.7932 32.8083 8.62085 32.0857 8.62085C31.3234 8.62085 30.7169 8.78988 30.2661 9.12795C29.8154 9.45939 29.5171 9.877 29.3712 10.3808L25.4536 10.0626C25.6525 9.13458 26.0436 8.3325 26.6269 7.65636C27.2103 6.9736 27.9626 6.44992 28.884 6.08534C29.8121 5.71413 30.8859 5.52852 32.1056 5.52852C32.9541 5.52852 33.7661 5.62795 34.5417 5.82682C35.3239 6.02568 36.0166 6.33392 36.6198 6.75153C37.2297 7.16915 37.7103 7.70608 38.0616 8.36233C38.4129 9.01195 38.5886 9.79083 38.5886 10.699V21.0001H34.5715V18.8822H34.4522C34.207 19.3595 33.8788 19.7804 33.4678 20.145C33.0569 20.503 32.563 20.7847 31.9863 20.9902C31.4096 21.189 30.7434 21.2885 29.9877 21.2885ZM31.2008 18.3652C31.8239 18.3652 32.3741 18.2425 32.8514 17.9973C33.3286 17.7454 33.7032 17.4073 33.9749 16.9831C34.2467 16.5588 34.3826 16.0782 34.3826 15.5413V13.9206C34.25 14.0067 34.0677 14.0863 33.8357 14.1592C33.6104 14.2255 33.3552 14.2885 33.0701 14.3481C32.7851 14.4012 32.5 14.4509 32.215 14.4973C31.93 14.537 31.6714 14.5735 31.4394 14.6066C30.9423 14.6796 30.5081 14.7956 30.1369 14.9547C29.7657 15.1137 29.4773 15.3292 29.2718 15.601C29.0663 15.8661 28.9636 16.1976 28.9636 16.5953C28.9636 17.172 29.1724 17.6128 29.59 17.9177C30.0142 18.216 30.5512 18.3652 31.2008 18.3652Z" fill="#E60012"/>
<path d="M41.8748 21.0001V5.72738H45.9813V8.39216H46.1404C46.4188 7.44424 46.8862 6.72833 47.5424 6.24443C48.1987 5.7539 48.9543 5.50863 49.8095 5.50863C50.0216 5.50863 50.2503 5.52189 50.4955 5.54841C50.7408 5.57492 50.9562 5.61138 51.1418 5.65778V9.4163C50.943 9.35665 50.6679 9.30361 50.3166 9.25721C49.9652 9.21081 49.6437 9.18761 49.3521 9.18761C48.729 9.18761 48.1721 9.3235 47.6816 9.59528C47.1977 9.86043 46.8132 10.2316 46.5282 10.7089C46.2498 11.1862 46.1106 11.7364 46.1106 12.3595V21.0001H41.8748Z" fill="#E60012"/>
<path d="M57.1699 16.6052L57.1798 11.5243H57.7963L62.6884 5.72738H67.5506L60.9781 13.4035H59.9739L57.1699 16.6052ZM53.3318 21.0001V0.636475H57.5676V21.0001H53.3318ZM62.8773 21.0001L58.383 14.3481L61.2068 11.3552L67.8389 21.0001H62.8773Z" fill="#E60012"/>
<path d="M75.96 21.2984C74.389 21.2984 73.0367 20.9802 71.9032 20.3439C70.7763 19.7009 69.9079 18.7927 69.2981 17.6194C68.6882 16.4395 68.3833 15.0441 68.3833 13.4333C68.3833 11.8623 68.6882 10.4835 69.2981 9.29699C69.9079 8.11043 70.7664 7.18572 71.8734 6.52284C72.987 5.85996 74.2929 5.52852 75.791 5.52852C76.7986 5.52852 77.7365 5.69093 78.6049 6.01574C79.4799 6.33392 80.2422 6.81451 80.8918 7.4575C81.5481 8.10049 82.0585 8.9092 82.4231 9.88363C82.7877 10.8514 82.97 11.985 82.97 13.2842V14.4476H70.0737V11.8226H78.9828C78.9828 11.2127 78.8502 10.6725 78.585 10.2018C78.3199 9.73117 77.952 9.36327 77.4813 9.09812C77.0173 8.82634 76.4771 8.69045 75.8606 8.69045C75.2176 8.69045 74.6475 8.8396 74.1504 9.13789C73.6598 9.42956 73.2754 9.82397 72.997 10.3211C72.7185 10.8117 72.576 11.3585 72.5694 11.9618V14.4575C72.5694 15.2132 72.7086 15.8661 72.987 16.4163C73.2721 16.9665 73.6731 17.3907 74.1901 17.689C74.7072 17.9873 75.3204 18.1365 76.0296 18.1365C76.5003 18.1365 76.9311 18.0702 77.3222 17.9376C77.7133 17.805 78.0481 17.6062 78.3265 17.341C78.6049 17.0759 78.817 16.7511 78.9629 16.3666L82.8805 16.6251C82.6816 17.5664 82.2739 18.3884 81.6575 19.091C81.0476 19.787 80.2588 20.3306 79.291 20.7217C78.3298 21.1062 77.2195 21.2984 75.96 21.2984Z" fill="#E60012"/>
<path d="M93.8578 5.72738V8.9092H84.6603V5.72738H93.8578ZM86.7484 2.06829H90.9842V16.3069C90.9842 16.698 91.0438 17.003 91.1632 17.2217C91.2825 17.4338 91.4482 17.583 91.6603 17.6691C91.8791 17.7553 92.131 17.7984 92.416 17.7984C92.6149 17.7984 92.8137 17.7818 93.0126 17.7487C93.2114 17.7089 93.3639 17.6791 93.47 17.6592L94.1362 20.8112C93.924 20.8775 93.6257 20.9537 93.2413 21.0399C92.8568 21.1327 92.3895 21.189 91.8393 21.2089C90.8185 21.2487 89.9236 21.1128 89.1546 20.8012C88.3923 20.4897 87.799 20.0058 87.3748 19.3495C86.9506 18.6933 86.7418 17.8647 86.7484 16.8637V2.06829Z" fill="#E60012"/>
<path d="M101.181 0.636475V21.0001H96.9451V0.636475H101.181Z" fill="#E60012"/>
<path d="M107.189 26.7274C106.652 26.7274 106.148 26.6843 105.678 26.5981C105.214 26.5186 104.829 26.4158 104.524 26.2899L105.479 23.128C105.976 23.2804 106.423 23.3633 106.821 23.3765C107.226 23.3898 107.574 23.297 107.865 23.0981C108.164 22.8993 108.405 22.5612 108.591 22.0839L108.84 21.4376L103.361 5.72738H107.815L110.977 16.9433H111.137L114.328 5.72738H118.813L112.877 22.6507C112.592 23.4727 112.204 24.1886 111.713 24.7984C111.229 25.4149 110.616 25.8888 109.874 26.2203C109.131 26.5583 108.236 26.7274 107.189 26.7274Z" fill="#E60012"/>
</svg>
