<svg width="364" height="244" viewBox="0 0 364 244" fill="none" xmlns="http://www.w3.org/2000/svg">
<path d="M74.5944 25C95.8562 25.099 116.976 25.198 137.955 25.297C130.467 78.5593 122.519 131.834 114.112 185.121C111.561 204.37 88.4219 219.981 62.0865 219.981C35.8099 219.981 19.299 204.333 25.1936 185.047C41.8414 131.698 58.3083 78.3489 74.5944 25Z" fill="white"/>
<path d="M153.659 25.3527C174.608 25.4517 195.557 25.5507 216.506 25.6497C219.839 78.8253 223.505 132.001 227.503 185.177C228.589 204.407 207.855 220 181.475 220C155.081 219.981 134.963 204.37 136.752 185.139C142.715 131.877 148.351 78.6149 153.659 25.3527Z" fill="white"/>
<path d="M295.571 26.0024C274.309 25.9034 253.194 25.8106 232.225 25.7239C237.729 78.8872 243.702 132.044 250.144 185.195C251.977 204.407 274.514 220 300.879 220C327.141 220.019 344.253 204.445 339.077 185.269C324.404 132.18 309.902 79.0914 295.571 26.0024Z" fill="white"/>
<path fill-rule="evenodd" clip-rule="evenodd" d="M56.8528 0.917114L74.7061 1.00024C93.8997 1.08961 112.978 1.17899 131.94 1.26836L131.942 1.24978L232.324 1.72413C253.297 1.81077 274.416 1.9036 295.682 2.00262L313.974 2.0878L318.741 19.7476C333.06 72.7902 347.549 125.833 362.209 178.876L362.229 178.945L362.247 179.015C367.332 197.849 361.045 215.646 347.915 227.587C335.531 238.851 318.384 244.012 300.862 244C283.123 243.997 266.103 238.787 252.711 229.576C248.194 226.47 243.885 222.742 240.097 218.441C236.903 222.438 233.212 225.962 229.252 228.952C216.209 238.802 199.177 244 181.475 244H181.467L181.458 244C163.764 243.988 146.734 238.778 133.803 228.713C130.008 225.759 126.504 222.309 123.485 218.426C119.535 222.793 115.06 226.564 110.397 229.694C96.8896 238.765 79.828 243.981 62.0865 243.981C44.5774 243.981 27.3421 238.793 15.0717 227.171C1.94912 214.742 -3.43362 196.601 2.2417 178.032L2.26225 177.964L2.2832 177.897C18.9162 124.596 35.3685 71.2941 51.6401 17.9926L56.8528 0.917114ZM112.741 190.79C113.393 188.945 113.856 187.051 114.112 185.121C114.22 184.435 114.328 183.749 114.436 183.064C114.458 182.925 114.48 182.787 114.502 182.648C121.505 138.184 128.188 93.7283 134.552 49.2812C135.696 41.2862 136.831 33.2914 137.955 25.297C135.155 25.2838 132.354 25.2706 129.549 25.2574C124.287 25.2326 119.015 25.2078 113.734 25.183C100.741 25.122 87.6947 25.061 74.5944 25C58.3083 78.3489 41.8414 131.698 25.1936 185.047C19.299 204.333 35.8099 219.981 62.0865 219.981C85.781 219.981 106.888 207.344 112.741 190.79ZM136.649 188.108C136.653 188.299 136.66 188.49 136.669 188.68C136.73 189.992 136.894 191.284 137.155 192.549C140.392 208.226 158.571 219.984 181.475 220C204.562 220 223.324 208.057 226.921 192.185C227.236 190.798 227.434 189.38 227.51 187.938C227.52 187.743 227.528 187.548 227.534 187.352C227.554 186.633 227.545 185.907 227.503 185.177C223.548 132.564 219.917 79.9523 216.612 27.3402C216.577 26.7767 216.541 26.2132 216.506 25.6497L153.659 25.3527C153.589 26.0601 153.518 26.7676 153.447 27.4751C148.201 80.0299 142.636 132.585 136.752 185.139C136.659 186.139 136.625 187.129 136.649 188.108ZM250.144 185.195C250.333 187.18 250.744 189.127 251.356 191.021C256.675 207.463 277.238 220 300.879 220C327.141 220.019 344.253 204.445 339.077 185.269C324.404 132.18 309.902 79.0914 295.571 26.0024C282.446 25.9413 269.377 25.8825 256.364 25.8261C251.087 25.8032 245.819 25.7807 240.56 25.7587C237.779 25.747 235.001 25.7354 232.225 25.7239C233.054 33.7276 233.893 41.7312 234.743 49.7346C239.477 94.324 244.542 138.909 249.937 183.49C249.954 183.629 249.971 183.769 249.988 183.908C250.04 184.337 250.092 184.766 250.144 185.195Z" fill="#E60012"/>
</svg>
