<svg width="119" height="27" viewBox="0 0 119 27" fill="none" xmlns="http://www.w3.org/2000/svg">
<path d="M0 0H5.30966L10.9176 13.6818H11.1563L16.7642 0H22.0739V20.3636H17.8977V7.10938H17.7287L12.4588 20.2642H9.61506L4.34517 7.05966H4.17614V20.3636H0V0Z" fill="white"/>
<path d="M29.8967 20.652C28.9222 20.652 28.0539 20.483 27.2915 20.1449C26.5292 19.8002 25.926 19.2931 25.4819 18.6236C25.0444 17.9474 24.8256 17.1056 24.8256 16.098C24.8256 15.2495 24.9814 14.5369 25.293 13.9602C25.6045 13.3835 26.0288 12.9195 26.5657 12.5682C27.1026 12.2169 27.7125 11.9517 28.3952 11.7727C29.0846 11.5938 29.8072 11.4678 30.5629 11.3949C31.4511 11.3021 32.167 11.2159 32.7106 11.1364C33.2541 11.0502 33.6486 10.9242 33.8938 10.7585C34.1391 10.5928 34.2617 10.3475 34.2617 10.0227V9.96307C34.2617 9.33333 34.0629 8.84612 33.6651 8.50142C33.274 8.15672 32.7172 7.98438 31.9947 7.98438C31.2324 7.98438 30.6258 8.15341 30.1751 8.49148C29.7243 8.82292 29.426 9.24053 29.2802 9.74432L25.3626 9.42614C25.5614 8.49811 25.9525 7.69602 26.5359 7.01989C27.1192 6.33712 27.8716 5.81345 28.793 5.44886C29.721 5.07765 30.7949 4.89205 32.0146 4.89205C32.863 4.89205 33.6751 4.99148 34.4506 5.19034C35.2328 5.38921 35.9255 5.69744 36.5288 6.11506C37.1386 6.53267 37.6192 7.0696 37.9705 7.72585C38.3219 8.37547 38.4975 9.15436 38.4975 10.0625V20.3636H34.4805V18.2457H34.3612C34.1159 18.723 33.7878 19.1439 33.3768 19.5085C32.9658 19.8665 32.4719 20.1482 31.8952 20.3537C31.3185 20.5526 30.6523 20.652 29.8967 20.652ZM31.1097 17.7287C31.7328 17.7287 32.283 17.6061 32.7603 17.3608C33.2376 17.1089 33.6121 16.7708 33.8839 16.3466C34.1557 15.9223 34.2915 15.4418 34.2915 14.9048V13.2841C34.159 13.3703 33.9767 13.4498 33.7447 13.5227C33.5193 13.589 33.2641 13.652 32.979 13.7116C32.694 13.7647 32.409 13.8144 32.1239 13.8608C31.8389 13.9006 31.5804 13.937 31.3484 13.9702C30.8512 14.0431 30.417 14.1591 30.0458 14.3182C29.6746 14.4773 29.3862 14.6927 29.1808 14.9645C28.9753 15.2296 28.8725 15.5611 28.8725 15.9588C28.8725 16.5355 29.0813 16.9763 29.4989 17.2812C29.9232 17.5795 30.4601 17.7287 31.1097 17.7287Z" fill="white"/>
<path d="M41.7837 20.3636V5.09091H45.8903V7.75568H46.0494C46.3278 6.80777 46.7951 6.09186 47.4514 5.60796C48.1076 5.11742 48.8633 4.87216 49.7184 4.87216C49.9305 4.87216 50.1592 4.88542 50.4045 4.91193C50.6497 4.93845 50.8652 4.97491 51.0508 5.02131V8.77983C50.8519 8.72017 50.5768 8.66714 50.2255 8.62074C49.8742 8.57434 49.5527 8.55114 49.261 8.55114C48.6379 8.55114 48.0811 8.68703 47.5906 8.95881C47.1067 9.22396 46.7222 9.59517 46.4371 10.0724C46.1587 10.5497 46.0195 11.0999 46.0195 11.723V20.3636H41.7837Z" fill="white"/>
<path d="M57.0788 15.9688L57.0888 10.8878H57.7053L62.5973 5.09091H67.4595L60.8871 12.767H59.8828L57.0788 15.9688ZM53.2408 20.3636V0H57.4766V20.3636H53.2408ZM62.7862 20.3636L58.2919 13.7116L61.1158 10.7188L67.7479 20.3636H62.7862Z" fill="white"/>
<path d="M75.869 20.6619C74.2979 20.6619 72.9457 20.3437 71.8121 19.7074C70.6852 19.0644 69.8169 18.1563 69.207 16.983C68.5972 15.803 68.2923 14.4077 68.2923 12.7969C68.2923 11.2259 68.5972 9.84707 69.207 8.66051C69.8169 7.47396 70.6753 6.54924 71.7823 5.88636C72.896 5.22349 74.2018 4.89205 75.6999 4.89205C76.7075 4.89205 77.6455 5.05445 78.5138 5.37926C79.3888 5.69744 80.1512 6.17803 80.8008 6.82102C81.457 7.46402 81.9674 8.27273 82.332 9.24716C82.6966 10.215 82.8789 11.3485 82.8789 12.6477V13.8111H69.9826V11.1861H78.8917C78.8917 10.5762 78.7591 10.036 78.494 9.56534C78.2288 9.0947 77.8609 8.7268 77.3903 8.46165C76.9263 8.18987 76.386 8.05398 75.7695 8.05398C75.1265 8.05398 74.5565 8.20312 74.0593 8.50142C73.5688 8.79309 73.1843 9.1875 72.9059 9.68466C72.6275 10.1752 72.485 10.7221 72.4783 11.3253V13.821C72.4783 14.5767 72.6175 15.2296 72.896 15.7798C73.181 16.33 73.582 16.7543 74.0991 17.0526C74.6161 17.3509 75.2293 17.5 75.9386 17.5C76.4092 17.5 76.8401 17.4337 77.2312 17.3011C77.6223 17.1686 77.957 16.9697 78.2354 16.7045C78.5139 16.4394 78.726 16.1146 78.8718 15.7301L82.7894 15.9886C82.5906 16.9299 82.1829 17.7519 81.5664 18.4545C80.9566 19.1506 80.1677 19.6941 79.1999 20.0852C78.2388 20.4697 77.1284 20.6619 75.869 20.6619Z" fill="white"/>
<path d="M93.7667 5.09091V8.27273H84.5692V5.09091H93.7667ZM86.6573 1.43182H90.8931V15.6705C90.8931 16.0616 90.9528 16.3665 91.0721 16.5852C91.1914 16.7973 91.3571 16.9465 91.5692 17.0327C91.788 17.1188 92.0399 17.1619 92.3249 17.1619C92.5238 17.1619 92.7227 17.1454 92.9215 17.1122C93.1204 17.0724 93.2728 17.0426 93.3789 17.0227L94.0451 20.1747C93.833 20.241 93.5347 20.3172 93.1502 20.4034C92.7657 20.4962 92.2984 20.5526 91.7482 20.5724C90.7274 20.6122 89.8325 20.4763 89.0636 20.1648C88.3013 19.8532 87.708 19.3693 87.2837 18.7131C86.8595 18.0568 86.6507 17.2282 86.6573 16.2273V1.43182Z" fill="white"/>
<path d="M101.09 0V20.3636H96.854V0H101.09Z" fill="white"/>
<path d="M107.098 26.0909C106.561 26.0909 106.057 26.0478 105.587 25.9616C105.123 25.8821 104.738 25.7794 104.433 25.6534L105.388 22.4915C105.885 22.6439 106.332 22.7268 106.73 22.7401C107.134 22.7533 107.482 22.6605 107.774 22.4616C108.072 22.2628 108.314 21.9247 108.5 21.4474L108.749 20.8011L103.27 5.09091H107.724L110.886 16.3068H111.045L114.237 5.09091H118.722L112.786 22.0142C112.5 22.8362 112.113 23.5521 111.622 24.1619C111.138 24.7784 110.525 25.2524 109.783 25.5838C109.04 25.9219 108.145 26.0909 107.098 26.0909Z" fill="white"/>
</svg>
